<svg width="1280" height="73" viewBox="0 0 1280 73" fill="none" xmlns="http://www.w3.org/2000/svg">
<path d="M-307 73V60C-301 59 -295 58 -291 53C-289.173 51.1391 -287.501 49.1325 -286 47C-285.399 45.635 -284.731 44.3001 -284 43C-281 40 -277 37 -273 37C-269 38 -266 41 -262 40C-258 39 -255 36 -253 33C-251 30 -249 26 -245 25C-241 24 -238 26 -234 29L-231 30C-226.954 31.9179 -222.436 32.613 -218 32C-212.882 31.2831 -208.049 29.2117 -204 26L-201 24C-196 20 -192 14 -189 9L-177 24H-176C-172 28 -166 32 -159 33C-154.893 33.4225 -150.748 32.7316 -147 31L-146 30C-142 28 -137 24 -132 25C-128 26 -126 30 -124 33C-122 36 -119 40 -115 40C-111 40 -108 38 -104 37C-100 37 -96 40 -94 43L-93 44L-87 53C-82 58 -76 60 -69 60C-67.0067 59.7685 -64.9933 59.7685 -63 60C-61.3369 59.8453 -59.6631 59.8453 -58 60C-51 60 -45 58 -40 53L-34 45L-33 43C-30 40 -27 37 -22 37C-19 38 -15 41 -11 40C-7 39 -5 36 -3 33C-1 30 2 26 5 25C7.37726 24.4697 9.8663 24.8253 12 26L19 30C23.3408 32.1204 28.2391 32.8202 33 32C37.6752 31.4142 42.1372 29.698 46 27C47.3977 26.0889 48.734 25.0867 50 24L62 9C66 14 69 20 74 24C79 28 85 32 91 32C95.4356 32.613 99.9537 31.9179 104 30C109 28 114 24 119 25C122 26 125 30 127 33C129 36 131 40 135 40C139 40 143 38 146 37C151 37 154 40 157 43L158 45L164 53C169 58 175 60 182 60C183.663 59.8394 185.337 59.8394 187 60C188.994 59.7771 191.006 59.7771 193 60C200 60 206 58 211 53C212.512 50.7737 213.85 48.4333 215 46L218 43C220 40 224 37 228 37C232 38 235 41 239 40C243 39 246 36 248 33C250 30 252 26 256 25C261 24 265 27 269 29L270 30C274.341 32.1204 279.239 32.8202 284 32C289.105 31.2377 293.927 29.1711 298 26L300 24C305 20 309 14 313 9C316 14 320 20 325 24L326 25C330 29 336 32 342 33C346.535 33.3064 351.058 32.2625 355 30H356C360 27 365 24 369 25C373 26 375 30 377 33C379 36 382 40 386 40C390 40 393 38 397 37C401 37 405 40 408 43L409 44L415 53C420 58 426 60 433 60C434.663 59.8394 436.337 59.8394 438 60C439.994 59.7771 442.006 59.7771 444 60C450 60 457 58 461 53C464 51 465 48 467 45L468 43C471 40 475 37 479 37C483 38 486 41 490 40C494 39 497 36 499 33C501 30 503 26 507 25C510 24 512 25 515 27L521 30C524.942 32.2625 529.465 33.3064 534 33C539.118 32.2831 543.951 30.2117 548 27C549.051 26.0524 550.052 25.0511 551 24C556 20 560 14 563 9C567 14 571 20 576 24C581 29 586 32 593 33C596.366 33.4079 599.781 33.0664 603 32C604.053 31.4165 605.056 30.7476 606 30C611 28 615 24 620 25C624 26 626 30 628 33C630 36 633 40 637 40C641 40 644 38 648 37C652 37 656 40 658 43L660 45C661.807 47.8063 663.812 50.4798 666 53C670 58 677 60 683 60C684.993 59.7685 687.007 59.7685 689 60C690.663 59.8453 692.337 59.8453 694 60C701 60 707 58 712 53C713.827 50.7852 715.497 48.4463 717 46L719 43C722 40 726 37 730 37C734 38 737 41 741 40C745 39 747 36 749 33C751 30 754 26 757 25C762 24 767 28 772 30L773 31C776.84 32.3931 780.982 32.7383 785 32C791.377 31.2223 797.336 28.4181 802 24C807 20 810 14 814 9L826 24L829 26C833.073 29.1711 837.895 31.2377 843 32C847.761 32.8202 852.659 32.1204 857 30L861 28C864 26 867 24 871 25C875 26 877 30 879 33C881 36 884 40 888 40C892 40 895 38 899 37C903 37 907 40 909 43L910 45L916 53C921 58 927 60 934 60C935.993 59.7685 938.007 59.7685 940 60C941.663 59.8453 943.337 59.8453 945 60C952 60 958 58 963 53L969 44L970 43C973 40 976 37 981 37C984 38 988 41 992 40C996 39 998 36 1000 33C1002 30 1005 26 1008 25C1011 24 1016 26 1020 28L1022 30C1026.34 32.1204 1031.24 32.8202 1036 32C1041.56 31.1195 1046.76 28.6939 1051 25L1053 24L1065 9C1069 14 1072 20 1077 24L1079 25C1083 29 1088 32 1094 32C1098.44 32.613 1102.95 31.9179 1107 30C1112 28 1117 24 1122 25C1125 26 1128 30 1130 33C1132 36 1134 40 1138 40C1142 40 1145 38 1149 37C1153 37 1157 40 1160 43L1162 46C1163.49 48.4539 1165.16 50.7937 1167 53C1172 58 1178 60 1185 60C1186.66 59.8394 1188.34 59.8394 1190 60C1191.99 59.7771 1194.01 59.7771 1196 60C1202 60 1209 58 1213 53C1214.84 50.7983 1216.52 48.4581 1218 46L1221 43C1223 40 1227 37 1231 37C1235 38 1238 41 1242 40C1246 39 1249 36 1251 33C1253 30 1255 26 1259 25C1264 24 1268 28 1273 30C1276.94 32.2625 1281.47 33.3064 1286 33C1292.02 32.0225 1297.6 29.2317 1302 25L1303 24C1308 20 1312 14 1316 9C1319 14 1323 20 1328 24L1329 25C1334 29 1339 32 1345 33C1349.53 33.3064 1354.06 32.2625 1358 30L1360 29C1364 27 1368 24 1372 25C1376 26 1378 30 1380 33C1382 36 1385 40 1389 40C1393 40 1396 38 1400 37C1404 37 1408 40 1411 43L1412 45L1418 53C1422 58 1429 60 1435 60C1436.99 59.7685 1439.01 59.7685 1441 60C1442.66 59.8453 1444.34 59.8453 1446 60C1453 60 1459 58 1464 53L1470 45L1471 43C1474 40 1478 37 1482 37C1486 38 1489 41 1493 40C1497 39 1500 36 1502 33C1504 30 1506 26 1510 25C1513 24 1516 26 1519 28L1524 30C1527.94 32.2625 1532.47 33.3064 1537 33C1542.57 32.1735 1547.79 29.7411 1552 26L1554 24C1559 20 1563 14 1566 9C1570 14 1574 20 1579 24V25C1584 29 1590 32 1595 33C1599.11 33.4225 1603.25 32.7316 1607 31L1609 30C1613 28 1618 24 1623 25C1627 26 1629 30 1631 33C1633 36 1636 40 1640 40C1644 40 1647 38 1651 37C1655 37 1659 40 1661 43L1663 45C1664.47 47.7843 1666.14 50.458 1668 53C1673 58 1679 60 1686 60L1693 61V73H-307Z" fill="#151515"/>
<path d="M407 9L399 15L402 25H412L415 15L407 9ZM439 20L425 30L430 46H447L452 30L439 20ZM155 9L146 15L150 25H160L163 15L155 9ZM282 3L271 11L275 23H288L293 11L282 3ZM187 20L173 30L178 46H195L200 30L187 20ZM-95 6L-103 12L-100 21H-90L-87 12L-95 6ZM26 4L18 10L21 20H31L35 10L26 4ZM-63 17L-77 26L-72 42H-55L-50 26L-63 17ZM-160 3L-168 9L-165 19H-155L-152 9L-160 3ZM-219 0L-231 9L-226 23H-211L-207 9L-219 0ZM631 1L639 7L636 17H626L623 7L631 1ZM688 31L698 38L694 50H682L678 38L688 31ZM738 12L745 17L743 26H734L731 17L738 12ZM596 3L607 11L603 24H589L585 11L596 3ZM968 11L976 17L973 27H963L960 17L968 11ZM843 4L851 10L848 20H838L835 10L843 4ZM940 27L951 35L947 48H933L929 35L940 27ZM1219 8L1227 14L1224 24H1214L1211 14L1219 8ZM1095 3L1103 9L1100 18H1090L1087 9L1095 3ZM1191 24L1203 32L1198 46H1184L1180 32L1191 24ZM1412 8L1404 14L1407 23H1417L1421 14L1412 8ZM1440 23L1429 31L1433 45H1447L1452 31L1440 23ZM1596 3L1590 8L1592 15H1600L1603 8L1596 3ZM1644 12L1635 18L1639 29H1650L1654 18L1644 12Z" fill="#151515"/>
</svg>
