<svg width="284" height="284" viewBox="0 0 284 284" fill="none" xmlns="http://www.w3.org/2000/svg">
<mask id="mask0_15_29" style="mask-type:luminance" maskUnits="userSpaceOnUse" x="0" y="0" width="284" height="284">
<path d="M227.2 0H56.8C25.4302 0 0 25.4302 0 56.8V227.2C0 258.57 25.4302 284 56.8 284H227.2C258.57 284 284 258.57 284 227.2V56.8C284 25.4302 258.57 0 227.2 0Z" fill="white"/>
</mask>
<g mask="url(#mask0_15_29)">
<path d="M227.2 0H56.8C25.4302 0 0 25.4302 0 56.8V227.2C0 258.57 25.4302 284 56.8 284H227.2C258.57 284 284 258.57 284 227.2V56.8C284 25.4302 258.57 0 227.2 0Z" fill="#3A2929"/>
<mask id="mask1_15_29" style="mask-type:luminance" maskUnits="userSpaceOnUse" x="-87" y="-27" width="458" height="459">
<path d="M370.904 -26.696H-86.904V431.112H370.904V-26.696Z" fill="white"/>
</mask>
<g mask="url(#mask1_15_29)">
<path d="M142 430.251C110.554 430.251 79.9596 424.052 51.0783 411.845C23.2562 400.082 -1.69457 383.272 -23.0809 361.887C-44.4673 340.502 -61.2792 315.55 -73.0519 287.729C-85.25 258.84 -91.448 228.256 -91.448 196.802C-91.448 165.348 -85.25 134.765 -73.042 105.884C-61.2792 78.0634 -44.4673 53.1137 -23.0809 31.7282C-1.69457 10.3427 23.2562 -6.46865 51.0783 -18.2307C79.9696 -30.4383 110.554 -36.636 142 -36.636C173.446 -36.636 204.04 -30.4383 232.922 -18.2208C260.744 -6.45877 285.695 10.3526 307.081 31.7481C328.469 53.1335 345.279 78.0832 357.042 105.904C369.26 134.784 375.448 165.377 375.448 196.822C375.448 228.266 369.251 258.859 357.042 287.74C345.279 315.561 328.469 340.502 307.081 361.896C285.695 383.292 260.744 400.094 232.922 411.854C204.04 424.072 173.446 430.26 142 430.26V430.251Z" fill="#E4615D"/>
<path d="M279.05 333.936C354.747 258.239 354.747 135.51 279.05 59.8135C203.353 -15.8836 80.6242 -15.8835 4.92717 59.8135C-70.7697 135.51 -70.7697 258.239 4.92717 333.936C80.6242 409.633 203.353 409.633 279.05 333.936Z" fill="#E97D75"/>
<path d="M251.047 305.933C311.278 245.702 311.278 148.048 251.047 87.8165C190.816 27.5853 93.1614 27.5853 32.9304 87.8165C-27.301 148.048 -27.301 245.702 32.9304 305.933C93.1614 366.164 190.816 366.164 251.047 305.933Z" fill="#EF988B"/>
<path d="M223.044 277.93C267.809 233.165 267.809 160.585 223.044 115.82C178.278 71.0542 105.699 71.0542 60.9336 115.82C16.168 160.585 16.168 233.165 60.9336 277.93C105.699 322.695 178.278 322.695 223.044 277.93Z" fill="#F3B29D"/>
<path d="M142 272.072C183.408 272.072 216.976 238.44 216.976 196.954C216.976 155.468 183.408 121.836 142 121.836C100.592 121.836 67.024 155.468 67.024 196.954C67.024 238.44 100.592 272.072 142 272.072Z" fill="#E5625D"/>
<path d="M142 272.072C183.408 272.072 216.976 238.44 216.976 196.954C216.976 155.468 183.408 121.836 142 121.836C100.592 121.836 67.024 155.468 67.024 196.954C67.024 238.44 100.592 272.072 142 272.072Z" fill="white"/>
</g>
<path d="M286.556 0H-4.54401V285.988H286.556V0Z" fill="url(#paint0_linear_15_29)"/>
<mask id="mask2_15_29" style="mask-type:luminance" maskUnits="userSpaceOnUse" x="-2" y="96" width="286" height="287">
<path d="M284 96.844H-1.70401V382.548H284V96.844Z" fill="white"/>
</mask>
<g mask="url(#mask2_15_29)">
<path d="M209.897 245.408C208.849 245.408 207.788 245.369 206.746 245.292C200.58 244.843 195.945 239.479 196.395 233.313C196.845 227.147 202.207 222.515 208.375 222.962C208.877 222.999 209.39 223.017 209.897 223.017C221.154 223.017 230.312 213.859 230.312 202.602C230.312 201.856 230.272 201.103 230.192 200.365C229.527 194.218 233.97 188.695 240.117 188.029C246.263 187.365 251.787 191.807 252.452 197.954C252.618 199.489 252.703 201.053 252.703 202.602C252.703 226.205 233.5 245.408 209.897 245.408Z" fill="url(#paint1_linear_15_29)"/>
<path d="M229.876 151.334V121.553C232.645 120.936 235.519 120.599 238.474 120.599C260.197 120.599 277.808 138.209 277.808 159.932C277.808 181.655 260.198 199.265 238.474 199.265C216.751 199.265 199.142 181.655 199.142 159.932C199.142 156.977 199.478 154.103 200.095 151.334H229.876Z" fill="url(#paint2_linear_15_29)"/>
<path d="M272.806 282.065C269.802 282.065 266.806 280.863 264.601 278.488C253.267 266.286 236.744 258.331 218.079 256.09C211.94 255.353 207.561 249.779 208.298 243.64C209.035 237.501 214.605 233.121 220.748 233.859C244.671 236.732 266.071 247.169 281.007 263.251C285.215 267.781 284.954 274.865 280.424 279.073C278.266 281.074 275.533 282.065 272.806 282.065Z" fill="url(#paint3_linear_15_29)"/>
<path d="M267.554 326.421C263.89 326.421 260.3 324.626 258.155 321.323C248.929 307.118 233.725 296.36 215.344 291.029C209.406 289.308 205.988 283.097 207.71 277.159C209.433 271.221 215.641 267.803 221.58 269.525C245.121 276.352 264.779 290.416 276.933 309.125C280.3 314.311 278.828 321.247 273.642 324.612C271.758 325.836 269.644 326.421 267.554 326.421Z" fill="url(#paint4_linear_15_29)"/>
<path d="M72.3981 245.408C48.7952 245.408 29.5934 226.205 29.5934 202.603C29.5934 201.054 29.6777 199.491 29.8438 197.955C30.5095 191.808 36.0362 187.368 42.1788 188.03C48.326 188.696 52.7695 194.219 52.1038 200.366C52.024 201.104 51.9836 201.857 51.9836 202.603C51.9836 213.86 61.1418 223.018 72.3993 223.018C72.9071 223.018 73.4191 223 73.9221 222.963C80.0948 222.515 85.4522 227.148 85.902 233.314C86.3513 239.48 81.7176 244.845 75.5508 245.294C74.5068 245.369 73.4467 245.408 72.3981 245.408Z" fill="url(#paint5_linear_15_29)"/>
<path d="M9.48863 282.065C6.76161 282.065 4.02845 281.074 1.87229 279.072C-2.65823 274.864 -2.91938 267.78 1.28861 263.25C16.2261 247.169 37.6266 236.731 61.5479 233.858C67.6911 233.123 73.2601 237.5 73.9979 243.639C74.7352 249.778 70.3559 255.352 64.2169 256.089C45.5508 258.331 29.0288 266.285 17.6937 278.488C15.4884 280.863 12.4919 282.065 9.48863 282.065Z" fill="url(#paint6_linear_15_29)"/>
<path d="M14.7407 326.421C12.6503 326.421 10.5366 325.836 8.65328 324.615C3.46764 321.247 1.99504 314.311 5.36266 309.128C17.5162 290.416 37.1739 276.352 60.7149 269.525C66.6545 267.803 72.8628 271.221 74.5849 277.16C76.3074 283.097 72.8892 289.308 66.9507 291.029C48.5708 296.36 33.366 307.118 24.1399 321.323C21.996 324.623 18.4046 326.421 14.7407 326.421Z" fill="url(#paint7_linear_15_29)"/>
<path d="M141.145 328.659C185.658 328.659 221.743 298.433 221.743 261.151C221.743 223.869 185.658 193.645 141.145 193.645C96.6327 193.645 60.5482 223.869 60.5482 261.151C60.5482 298.433 96.6327 328.659 141.145 328.659Z" fill="url(#paint8_linear_15_29)"/>
<path d="M52.4184 151.334V121.553C49.6494 120.936 46.7751 120.599 43.8203 120.599C22.0975 120.599 4.4877 138.209 4.4877 159.932C4.4877 181.655 22.0975 199.265 43.8203 199.265C65.5435 199.265 83.1532 181.655 83.1532 159.932C83.1532 156.977 82.8172 154.103 82.1995 151.334H52.4184Z" fill="url(#paint9_linear_15_29)"/>
</g>
</g>
<defs>
<linearGradient id="paint0_linear_15_29" x1="141.006" y1="105.364" x2="141.006" y2="279.314" gradientUnits="userSpaceOnUse">
<stop stop-color="#D9D9D9" stop-opacity="0"/>
<stop offset="1" stop-color="#FFB54D"/>
</linearGradient>
<linearGradient id="paint1_linear_15_29" x1="224.534" y1="187.963" x2="224.534" y2="245.408" gradientUnits="userSpaceOnUse">
<stop stop-color="#D62F2D"/>
<stop offset="1" stop-color="#701918"/>
</linearGradient>
<linearGradient id="paint2_linear_15_29" x1="238.475" y1="120.599" x2="238.475" y2="207.036" gradientUnits="userSpaceOnUse">
<stop stop-color="#FF3D3A"/>
<stop offset="1" stop-color="#941F1E"/>
</linearGradient>
<linearGradient id="paint3_linear_15_29" x1="246.108" y1="233.778" x2="246.108" y2="282.065" gradientUnits="userSpaceOnUse">
<stop stop-color="#ED3E3C"/>
<stop offset="1" stop-color="#941E1D"/>
</linearGradient>
<linearGradient id="paint4_linear_15_29" x1="243.003" y1="269.079" x2="243.003" y2="326.421" gradientUnits="userSpaceOnUse">
<stop stop-color="#ED3E3C"/>
<stop offset="1" stop-color="#941E1D"/>
</linearGradient>
<linearGradient id="paint5_linear_15_29" x1="57.7628" y1="187.965" x2="57.7628" y2="245.408" gradientUnits="userSpaceOnUse">
<stop stop-color="#ED3E3C"/>
<stop offset="1" stop-color="#872322"/>
</linearGradient>
<linearGradient id="paint6_linear_15_29" x1="36.1873" y1="233.778" x2="36.1873" y2="282.065" gradientUnits="userSpaceOnUse">
<stop stop-color="#ED3E3C"/>
<stop offset="1" stop-color="#872322"/>
</linearGradient>
<linearGradient id="paint7_linear_15_29" x1="39.2928" y1="269.079" x2="39.2928" y2="326.421" gradientUnits="userSpaceOnUse">
<stop stop-color="#ED3E3C"/>
<stop offset="1" stop-color="#872322"/>
</linearGradient>
<linearGradient id="paint8_linear_15_29" x1="141.145" y1="193.645" x2="141.145" y2="284.71" gradientUnits="userSpaceOnUse">
<stop stop-color="#FC3D3A"/>
<stop offset="1" stop-color="#9B2523"/>
</linearGradient>
<linearGradient id="paint9_linear_15_29" x1="43.8203" y1="120.599" x2="43.8203" y2="199.265" gradientUnits="userSpaceOnUse">
<stop stop-color="#FE3D3B"/>
<stop offset="1" stop-color="#A32322"/>
</linearGradient>
</defs>
</svg>
