<svg xmlns="http://www.w3.org/2000/svg" viewBox="0 0 814.04 500.97"><defs><style>.cls-1{fill:#ff6711;}.cls-2{fill:#fff;}</style></defs><g id="Capa_2" data-name="Capa 2"><g id="Capa_1-2" data-name="Capa 1"><path d="M785.14,0H295.21a26.25,26.25,0,0,0-2.95.15c-1,.11-1.93.24-2.87.43a23,23,0,0,0-2.77.73c-.9.28-1.78.6-2.66,1a26.56,26.56,0,0,0-2.52,1.22,9.36,9.36,0,0,0-1,.58l-.45.26c-.38.25-.75.49-1.11.75-.8.56-1.55,1.14-2.3,1.76-.37.32-.73.64-1.07,1s-.69.68-1,1l-.65.62a.42.42,0,0,1-.11.13l-2.79,2.77L263,20.33c-.34.34-.69.69-.86.88-.34.32-.69.67-.9.9l-.86.86c-.36.35-.71.71-.88.88-.34.32-.69.67-.9.9l-1.76,1.76a28.64,28.64,0,0,0-9,20.89v75.45a28.94,28.94,0,0,0,28.9,28.9h15.52v52.36l63.87-52.36H766.63a28.5,28.5,0,0,0,20.76-8.89l1.76-1.76c.35-.33.69-.67.88-.88a12,12,0,0,0,.88-.88l1.76-1.76.91-.88,1.73-1.76c.37-.35.71-.69.88-.88l4.45-4.45c.34-.32.69-.66.84-.84.36-.34.7-.68.9-.9l2-2a1.77,1.77,0,0,1,.18-.15l.47-.5c.36-.34.73-.69,1.07-1s.67-.73,1-1.1.49-.58.73-.88a13.3,13.3,0,0,0,1.07-1.43c.28-.41.56-.82.82-1.23a28.71,28.71,0,0,0,2.58-5.28A22.14,22.14,0,0,0,813,112a19,19,0,0,0,.48-1.87c.19-1,.32-1.89.43-2.88a28.51,28.51,0,0,0,.15-2.94V28.9A28.94,28.94,0,0,0,785.14,0Zm21.49,104.34a21.51,21.51,0,0,1-21.49,21.49H371.94L318.13,170V125.83H295.21a21.52,21.52,0,0,1-21.5-21.49V28.9a21.52,21.52,0,0,1,21.5-21.49H785.14A21.51,21.51,0,0,1,806.63,28.9Z"/><path class="cls-1" d="M806.63,28.9v75.44a21.51,21.51,0,0,1-21.49,21.49H371.94L318.13,170V125.83H295.21a21.52,21.52,0,0,1-21.5-21.49V28.9a21.52,21.52,0,0,1,21.5-21.49H785.14A21.51,21.51,0,0,1,806.63,28.9Z"/><path d="M273.82,9.49l.65-.62c.34-.35.68-.71,1-1C274.92,8.35,274.36,8.91,273.82,9.49ZM805,125.23l-.47.5a18.75,18.75,0,0,0,1.54-1.55C805.75,124.54,805.38,124.89,805,125.23Z"/><path d="M185.82,264a52.78,52.78,0,0,0,8.71-29.56c.43-29.89-24.84-54.94-54.61-54.62H.67V324.34H57V289.06h50.31l27.2,35.28h60L163,283.8A54.21,54.21,0,0,0,185.82,264Zm-51.4-20.87a11.77,11.77,0,0,1-8.69,3.57H57V222.08h68.71a12.31,12.31,0,0,1,12.36,12.37A11.87,11.87,0,0,1,134.42,243.14Z"/><path d="M350.79,179.72v74.07c.3,23.77-19.26,27.87-42.27,28.17-23.11-.3-42.58-4.4-42.36-28.17V179.72H209.82v77.63c-.21,54.62,44.51,70.32,98.7,70.42,54.21-.1,98.93-15.8,98.71-70.42V179.72Z"/><path d="M522.5,235.63c-22.67-1.08-40.21-1.94-40.21-8.27,0-11.51,21.51-14.1,39-14.1s32.59,2.7,39,14.1h59C614,182.19,572,176.5,521.32,176.18c-50.75,0-98.05,9.87-98.05,51.18-.11,36.11,56.55,38.9,96.87,40.94,22.69,1.1,40.21,2.06,40.21,8.4,0,11.18-21.49,14.08-39,14.08s-32.57-2.9-39-14.08h-59c5.37,44.83,47.4,51,98.05,51.07s98.07-9.79,98.07-51.07C619.5,240.46,562.82,237.67,522.5,235.63Z"/><path d="M621.13,179.94v45.79h67v98.72h56.33V225.73h67V179.94Z"/><path d="M56.34,451.61v-98.7H0V497.43H169.11V451.61Z"/><path d="M317.94,353.13H251L173.43,497.64h63.44l11.4-24.73h72.35L332,497.64h63.44Zm-53.33,84.5L284.49,395l19.8,42.68Z"/><path d="M540.75,352.91v76.57l-63.44-76.57H399.78V497.43h56.34V409.14l77.63,88.29h63.44V352.91Z"/><path d="M715.49,442.81h45.37c-8.51,10.95-22.7,12.24-44.94,12.24-23.12-.31-42.7-4.41-42.38-28.17v-3.55c-.32-23.53,19.26-27.84,42.38-28.16a90.68,90.68,0,0,1,22.46,2.57c6.67,1.72,11.83,5,15.39,9.79h59.88c-6.33-44.5-47.62-58.16-97.73-58.16-54.4.11-98.93,15.8-98.72,70.53v10.54c-.21,54.62,44.32,70.31,98.72,70.53,24.5,0,50-5.91,66.77-22.48L785.48,501h28.17v-82.9H715.49Z"/><path class="cls-2" d="M321.68,89.55l-4.34-2L341.41,38,345.69,40Zm33.11-40,.51,11.3-10.54-3.92L343.13,62,354,65l-7,8.85,4.28,3.1,6.26-9.38L363.76,77l4.28-3.1L361,65l10.85-3-1.63-5.05-10.55,3.92.52-11.3Z"/><path class="cls-2" d="M410,70.64A12.42,12.42,0,0,0,411.35,76a7.36,7.36,0,0,0,3,3,8.68,8.68,0,0,0,4.11,1,11.84,11.84,0,0,0,4.08-.67,17.36,17.36,0,0,0,3.78-2l2.45,3.4A16.38,16.38,0,0,1,424,83.39a16.71,16.71,0,0,1-5.66,1,13.91,13.91,0,0,1-7.57-2A12.49,12.49,0,0,1,406,77a20.86,20.86,0,0,1,0-16.12,13.31,13.31,0,0,1,4.59-5.55A13.19,13.19,0,0,1,424.25,55a11.5,11.5,0,0,1,4.27,5,18.79,18.79,0,0,1,1.5,7.85c0,.51,0,1,0,1.47s-.05.88-.09,1.24Zm7.67-13.16a6.89,6.89,0,0,0-5.26,2.25q-2.1,2.27-2.41,7H424.8c-.06-3-.71-5.3-2-6.86A6.2,6.2,0,0,0,417.7,57.48Z"/><path class="cls-2" d="M433.85,83.66V54h4.65l.39,4a12.27,12.27,0,0,1,4.47-3.49,12.48,12.48,0,0,1,5.26-1.21c2.85,0,4.95.77,6.31,2.33A9.49,9.49,0,0,1,457,62V83.66h-5.42V65.36a26.93,26.93,0,0,0-.31-4.57,4,4,0,0,0-1.35-2.55,4.92,4.92,0,0,0-3.07-.79,6.81,6.81,0,0,0-3,.7,10.31,10.31,0,0,0-2.58,1.78,13.11,13.11,0,0,0-1.93,2.22V83.66Z"/><path class="cls-2" d="M494.58,70.64A12.42,12.42,0,0,0,495.9,76a7.4,7.4,0,0,0,3,3A8.72,8.72,0,0,0,503,80a11.84,11.84,0,0,0,4.08-.67,17.59,17.59,0,0,0,3.78-2l2.45,3.4a16.38,16.38,0,0,1-4.82,2.64,16.73,16.73,0,0,1-5.67,1,13.9,13.9,0,0,1-7.56-2A12.49,12.49,0,0,1,490.56,77a19.14,19.14,0,0,1-1.62-8.12,19,19,0,0,1,1.62-8,13.36,13.36,0,0,1,4.58-5.55,12.14,12.14,0,0,1,7.05-2A12,12,0,0,1,508.8,55a11.5,11.5,0,0,1,4.27,5,18.79,18.79,0,0,1,1.5,7.85c0,.51,0,1,0,1.47s0,.88-.09,1.24Zm7.67-13.16A6.89,6.89,0,0,0,497,59.73q-2.1,2.27-2.41,7h14.77c-.06-3-.71-5.3-2-6.86A6.22,6.22,0,0,0,502.25,57.48Z"/><path class="cls-2" d="M528.79,80.05a9.63,9.63,0,0,0,5.12-1.18,3.63,3.63,0,0,0,1.87-3.21,4.65,4.65,0,0,0-.49-2.23,4.39,4.39,0,0,0-2-1.69,24.88,24.88,0,0,0-4.63-1.56,30.9,30.9,0,0,1-5.27-1.77,8.79,8.79,0,0,1-3.49-2.65,6.85,6.85,0,0,1-1.22-4.23,7,7,0,0,1,1.42-4.39,9.07,9.07,0,0,1,4-2.88,16.88,16.88,0,0,1,6.08-1,18.94,18.94,0,0,1,6.38,1,17.48,17.48,0,0,1,4.61,2.38l-2.32,3.52a17.39,17.39,0,0,0-3.76-1.88,13.93,13.93,0,0,0-4.8-.73,8.36,8.36,0,0,0-4.69,1,3.09,3.09,0,0,0-1.4,2.64,3,3,0,0,0,.69,2,6,6,0,0,0,2.38,1.48,44.82,44.82,0,0,0,4.68,1.5A27.71,27.71,0,0,1,537,68a8.62,8.62,0,0,1,3.37,2.8,7.88,7.88,0,0,1,1.2,4.56,7.3,7.3,0,0,1-1.83,5.16A10.78,10.78,0,0,1,535,83.43a20,20,0,0,1-6.22.93,18.52,18.52,0,0,1-7-1.18,17.39,17.39,0,0,1-4.89-2.9l3-3.45a14.39,14.39,0,0,0,4,2.33A13.21,13.21,0,0,0,528.79,80.05Z"/><path class="cls-2" d="M560.39,53.25a9.66,9.66,0,0,1,6.31,1.93,10.76,10.76,0,0,1,3.41,5.41,28.46,28.46,0,0,1,1,8.18,23.55,23.55,0,0,1-1.28,8,12.1,12.1,0,0,1-3.8,5.54,9.93,9.93,0,0,1-6.37,2A9.64,9.64,0,0,1,552,81V95l-5.41.65V54h4.65l.4,4a11.64,11.64,0,0,1,3.91-3.49A10.08,10.08,0,0,1,560.39,53.25ZM559,57.51a6.45,6.45,0,0,0-4.09,1.39A13.28,13.28,0,0,0,552,62.07V76.44a8.37,8.37,0,0,0,2.76,2.61,7.12,7.12,0,0,0,3.63.94,5.9,5.9,0,0,0,5.28-2.71c1.18-1.82,1.77-4.65,1.77-8.51a23.87,23.87,0,0,0-.7-6.35,7.37,7.37,0,0,0-2.13-3.71A5.39,5.39,0,0,0,559,57.51Z"/><path class="cls-2" d="M596.66,76.83a4.53,4.53,0,0,0,.56,2.58,3.32,3.32,0,0,0,1.78,1.2l-1.27,3.73a8.41,8.41,0,0,1-3.52-1.22A5.67,5.67,0,0,1,592,80.19a10.13,10.13,0,0,1-4.05,3.11,13.31,13.31,0,0,1-5.33,1.06,9.69,9.69,0,0,1-7.08-2.53,8.93,8.93,0,0,1-2.59-6.69A8.09,8.09,0,0,1,576.55,68c2.41-1.66,5.89-2.48,10.41-2.48h4.32V63.28c0-2-.61-3.5-1.82-4.36a8.57,8.57,0,0,0-5.06-1.31,20.46,20.46,0,0,0-3.49.37,29.46,29.46,0,0,0-4.32,1.16l-1.38-4a30.5,30.5,0,0,1,5.28-1.49,27.08,27.08,0,0,1,4.72-.45q5.76,0,8.61,2.61A9.2,9.2,0,0,1,596.66,63ZM584.12,80.3a8,8,0,0,0,4-1.07,8.91,8.91,0,0,0,3.16-3V69.06h-3.95q-4.7,0-6.68,1.59A6.08,6.08,0,0,0,580,79,5.53,5.53,0,0,0,584.12,80.3Z"/><path class="cls-2" d="M603,83.66V54h4.64l.4,4a12.19,12.19,0,0,1,4.47-3.49,12.4,12.4,0,0,1,5.25-1.21c2.86,0,5,.77,6.31,2.33a9.49,9.49,0,0,1,2,6.46V83.66h-5.41V65.36a26.79,26.79,0,0,0-.32-4.57A3.93,3.93,0,0,0,619,58.24a4.92,4.92,0,0,0-3.07-.79,6.85,6.85,0,0,0-3,.7,10.69,10.69,0,0,0-2.58,1.78,13.58,13.58,0,0,0-1.93,2.22V83.66Zm14.79-36.89a4.83,4.83,0,0,1-2.61-.68c-.72-.45-1.39-.9-2-1.36a3.25,3.25,0,0,0-1.93-.67,2.23,2.23,0,0,0-1.63.66,8.11,8.11,0,0,0-1.36,1.94L605,45a11.91,11.91,0,0,1,2.54-3.57A5.19,5.19,0,0,1,611.2,40a4.85,4.85,0,0,1,2.65.67c.71.44,1.37.88,2,1.33a3.07,3.07,0,0,0,1.93.68,2.24,2.24,0,0,0,1.53-.6,8,8,0,0,0,1.46-1.85l3.21,1.61a9.53,9.53,0,0,1-2.68,3.7A5.49,5.49,0,0,1,617.74,46.77Z"/><path class="cls-2" d="M642.71,53.25a12.65,12.65,0,0,1,7.15,1.91,11.85,11.85,0,0,1,4.36,5.4,20.83,20.83,0,0,1,1.48,8.21,20.3,20.3,0,0,1-1.51,8.11,11.77,11.77,0,0,1-11.54,7.48,12.71,12.71,0,0,1-7.14-1.92A11.83,11.83,0,0,1,631.1,77a20.74,20.74,0,0,1-1.5-8.21,20.54,20.54,0,0,1,1.51-8.13,12.39,12.39,0,0,1,4.44-5.48A12.56,12.56,0,0,1,642.71,53.25Zm0,4.31a6.2,6.2,0,0,0-5.52,2.75c-1.25,1.83-1.86,4.67-1.86,8.52s.6,6.64,1.83,8.47a6.87,6.87,0,0,0,11,0Q650,74.56,650,68.77c0-3.83-.61-6.65-1.81-8.47A6.11,6.11,0,0,0,642.71,57.56Z"/><path class="cls-2" d="M671.51,42V76a3.38,3.38,0,0,0,1.32,3,6.08,6.08,0,0,0,3.42.89,10.58,10.58,0,0,0,2.5-.29,17,17,0,0,0,2.38-.73l1.41,3.86a16.45,16.45,0,0,1-7.31,1.61A9.25,9.25,0,0,1,668.58,82a8.41,8.41,0,0,1-2.48-6.42V46.11h-9V42Z"/><path class="cls-2" d="M726.3,49.56l-.51,11.3,10.54-3.92L738,62l-10.85,3,7,8.85L729.85,77l-6.26-9.38L717.34,77l-4.29-3.1,7-8.85-10.85-3,1.64-5.05,10.53,3.92-.5-11.3ZM764.88,40,760.6,38,736.53,87.6l4.34,2Z"/></g></g></svg>