<svg xmlns="http://www.w3.org/2000/svg" viewBox="0 0 815 501.56"><defs><style>.cls-1{fill:#fff;}</style></defs><g id="Capa_2" data-name="Capa 2"><g id="Capa_1-2" data-name="Capa 1"><path d="M786.07,0H295.55a26.19,26.19,0,0,0-2.94.15c-1,.11-1.93.24-2.88.43a23,23,0,0,0-2.77.73,28.38,28.38,0,0,0-2.67,1,25.27,25.27,0,0,0-2.51,1.22,11,11,0,0,0-1,.58c-.15.09-.3.18-.46.26l-1.11.75c-.8.56-1.55,1.14-2.3,1.77-.37.32-.73.64-1.08,1s-.69.68-1,1l-.64.62-.11.13-2.8,2.77-7.95,8c-.34.34-.69.68-.86.88-.34.32-.69.66-.9.9l-.86.86c-.37.34-.71.71-.88.88-.35.32-.69.67-.91.9l-1.76,1.77a28.68,28.68,0,0,0-9,20.91V123A29,29,0,0,0,277,151.93h15.54v52.42l63.94-52.42h411a28.55,28.55,0,0,0,20.78-8.9l1.77-1.77c.34-.32.69-.66.88-.88a10.3,10.3,0,0,0,.88-.88l1.76-1.76c.37-.34.71-.69.91-.88l1.74-1.76c.36-.35.71-.69.88-.89l4.45-4.45c.34-.32.69-.66.84-.83.36-.35.7-.69.9-.91l2-2c.06-.06.13-.1.17-.15l.47-.49q.56-.51,1.08-1l1-1.1c.25-.3.49-.58.73-.88a14.91,14.91,0,0,0,1.07-1.44c.28-.41.56-.82.82-1.23a28.71,28.71,0,0,0,2.58-5.28,23.23,23.23,0,0,0,.71-2.24c.19-.62.34-1.25.47-1.87.19-1,.32-1.89.43-2.88a26.25,26.25,0,0,0,.15-3V28.93A29,29,0,0,0,786.07,0Zm21.51,104.46A21.54,21.54,0,0,1,786.07,126H372.38l-53.87,44.19V126h-23A21.54,21.54,0,0,1,274,104.46V28.93A21.54,21.54,0,0,1,295.55,7.42H786.07a21.54,21.54,0,0,1,21.51,21.51Z"/><path class="cls-1" d="M807.58,28.93v75.53A21.54,21.54,0,0,1,786.07,126H372.38l-53.87,44.19V126h-23A21.54,21.54,0,0,1,274,104.46V28.93A21.54,21.54,0,0,1,295.55,7.42H786.07A21.54,21.54,0,0,1,807.58,28.93Z"/><path d="M274.15,9.5l.64-.62c.34-.35.69-.71,1-1A21.65,21.65,0,0,0,274.15,9.5ZM806,125.38l-.47.49a18.79,18.79,0,0,0,1.55-1.54Q806.53,124.87,806,125.38Z"/><path d="M186,264.32a52.83,52.83,0,0,0,8.73-29.6c.43-29.92-24.87-55-54.69-54.68H.67V324.72H57.09V289.41h50.36l27.24,35.31h60.08l-31.54-40.58A54.36,54.36,0,0,0,186,264.32Zm-51.46-20.89a11.76,11.76,0,0,1-8.71,3.57H57.09V222.34h68.78a12.34,12.34,0,0,1,12.39,12.38A11.89,11.89,0,0,1,134.58,243.43Z"/><path d="M351.2,179.93v74.16c.31,23.8-19.28,27.9-42.32,28.2-23.13-.3-42.62-4.4-42.41-28.2V179.93h-56.4v77.73c-.22,54.68,44.56,70.39,98.81,70.5,54.28-.11,99.05-15.82,98.84-70.5V179.93Z"/><path d="M523.12,235.91c-22.7-1.08-40.26-1.94-40.26-8.28,0-11.52,21.54-14.12,39.08-14.12s32.63,2.71,39.08,14.12h59.11c-5.4-45.22-47.48-50.92-98.19-51.24-50.82,0-98.17,9.88-98.17,51.24-.11,36.16,56.62,38.95,97,41,22.72,1.1,40.26,2.06,40.26,8.41,0,11.19-21.52,14.1-39.08,14.1s-32.61-2.91-39.08-14.1H423.77c5.38,44.88,47.46,51,98.17,51.13s98.19-9.8,98.19-51.13C620.23,240.74,563.49,238,523.12,235.91Z"/><path d="M621.87,180.15V226h67.06v98.83h56.41V226H812.4V180.15Z"/><path d="M56.4,452.14V353.33H0V498H169.32V452.14Z"/><path d="M318.32,353.55H251.25L173.64,498.23h63.51l11.42-24.76H321l11.42,24.76h63.52Zm-53.4,84.6,19.91-42.73,19.82,42.73Z"/><path d="M541.39,353.33V430l-63.52-76.65H400.26V498h56.4V409.63L534.38,498H597.9V353.33Z"/><path d="M716.34,443.33h45.42c-8.51,11-22.72,12.25-45,12.25-23.15-.3-42.75-4.4-42.43-28.2v-3.54c-.32-23.56,19.28-27.88,42.43-28.21a90.35,90.35,0,0,1,22.48,2.58c6.69,1.72,11.85,5,15.41,9.81h60c-6.34-44.56-47.67-58.23-97.84-58.23-54.47.1-99,15.82-98.84,70.61V431c-.21,54.68,44.37,70.4,98.84,70.61,24.52,0,50.06-5.91,66.85-22.5l2.79,22.5h28.2v-83H716.34Z"/><path d="M322.06,89.65l-4.35-1.94L341.81,38l4.29,2.06Zm33.15-40,.51,11.32L345.17,57l-1.64,5.05,10.87,3-7,8.86,4.29,3.1,6.26-9.39L364.19,77l4.29-3.1-7-8.86,10.86-3L370.68,57l-10.56,3.92.51-11.32Z"/><path d="M410.52,70.72a12.18,12.18,0,0,0,1.32,5.34,7.39,7.39,0,0,0,3,3.06,8.8,8.8,0,0,0,4.11,1,11.86,11.86,0,0,0,4.09-.68,17.42,17.42,0,0,0,3.79-2l2.45,3.41a17.09,17.09,0,0,1-10.5,3.61,13.91,13.91,0,0,1-7.57-2A12.53,12.53,0,0,1,406.49,77a20.91,20.91,0,0,1,0-16.14,13.38,13.38,0,0,1,4.59-5.55,13.2,13.2,0,0,1,13.67-.26A11.54,11.54,0,0,1,429,60.15a18.81,18.81,0,0,1,1.5,7.86c0,.51,0,1,0,1.47s-.05.88-.09,1.24Zm7.68-13.17a6.9,6.9,0,0,0-5.27,2.25q-2.1,2.27-2.41,7H425.3q-.09-4.52-2-6.87A6.22,6.22,0,0,0,418.2,57.55Z"/><path d="M434.36,83.76V54H439l.39,4a12.2,12.2,0,0,1,4.48-3.49,12.46,12.46,0,0,1,5.26-1.22c2.86,0,5,.78,6.32,2.33a9.54,9.54,0,0,1,2,6.47V83.76h-5.42V65.44a26.91,26.91,0,0,0-.32-4.58,4,4,0,0,0-1.35-2.55,4.92,4.92,0,0,0-3.07-.79,6.85,6.85,0,0,0-3,.7A10.69,10.69,0,0,0,441.71,60a13.17,13.17,0,0,0-1.93,2.23V83.76Z"/><path d="M495.17,70.72a12.18,12.18,0,0,0,1.32,5.34,7.33,7.33,0,0,0,3,3.06,8.8,8.8,0,0,0,4.11,1,11.9,11.9,0,0,0,4.09-.68,17.42,17.42,0,0,0,3.79-2L514,80.85a17.09,17.09,0,0,1-10.5,3.61,13.91,13.91,0,0,1-7.57-2A12.53,12.53,0,0,1,491.14,77a19.15,19.15,0,0,1-1.62-8.13,19,19,0,0,1,1.62-8,13.31,13.31,0,0,1,4.59-5.55,13.2,13.2,0,0,1,13.67-.26,11.54,11.54,0,0,1,4.28,5.06,18.81,18.81,0,0,1,1.5,7.86c0,.51,0,1,0,1.47s0,.88-.09,1.24Zm7.67-13.17a6.89,6.89,0,0,0-5.26,2.25q-2.1,2.27-2.41,7H510q-.09-4.52-2-6.87A6.22,6.22,0,0,0,502.84,57.55Z"/><path d="M529.42,80.15A9.53,9.53,0,0,0,534.54,79a3.64,3.64,0,0,0,1.88-3.21,4.54,4.54,0,0,0-.5-2.23,4.3,4.3,0,0,0-2-1.7,25.66,25.66,0,0,0-4.64-1.55A31.76,31.76,0,0,1,524,68.49a8.72,8.72,0,0,1-3.49-2.65,6.87,6.87,0,0,1-1.23-4.23,7,7,0,0,1,1.43-4.4,9.11,9.11,0,0,1,4-2.89,16.9,16.9,0,0,1,6.09-1,19.25,19.25,0,0,1,6.39,1,17.65,17.65,0,0,1,4.61,2.39l-2.32,3.52a17.39,17.39,0,0,0-3.76-1.88,14,14,0,0,0-4.81-.74,8.39,8.39,0,0,0-4.7,1,3.11,3.11,0,0,0-1.4,2.64,3,3,0,0,0,.69,2,6.22,6.22,0,0,0,2.39,1.48,44.82,44.82,0,0,0,4.68,1.5,28.1,28.1,0,0,1,5.08,1.86A8.56,8.56,0,0,1,541,70.88a7.82,7.82,0,0,1,1.2,4.55,7.35,7.35,0,0,1-1.83,5.18,10.76,10.76,0,0,1-4.76,2.92,20.39,20.39,0,0,1-6.22.93,18.63,18.63,0,0,1-7-1.18,17.31,17.31,0,0,1-4.89-2.91l3-3.44a15,15,0,0,0,4,2.33A13.27,13.27,0,0,0,529.42,80.15Z"/><path d="M561.05,53.31a9.75,9.75,0,0,1,6.32,1.93,10.72,10.72,0,0,1,3.41,5.42,28.61,28.61,0,0,1,1.05,8.2,23.55,23.55,0,0,1-1.27,8,12.15,12.15,0,0,1-3.81,5.55,10,10,0,0,1-6.37,2,9.68,9.68,0,0,1-7.74-3.38V95.15l-5.41.66V54h4.65l.4,4a11.66,11.66,0,0,1,3.92-3.49A10.09,10.09,0,0,1,561.05,53.31Zm-1.38,4.26a6.46,6.46,0,0,0-4.09,1.4,13.12,13.12,0,0,0-2.94,3.17V76.53a8.46,8.46,0,0,0,2.76,2.61,7.09,7.09,0,0,0,3.64,1,5.92,5.92,0,0,0,5.29-2.72q1.77-2.73,1.77-8.51a23.9,23.9,0,0,0-.7-6.36,7.3,7.3,0,0,0-2.14-3.72A5.38,5.38,0,0,0,559.67,57.57Z"/><path d="M597.36,76.93a4.56,4.56,0,0,0,.57,2.58,3.34,3.34,0,0,0,1.78,1.2l-1.28,3.73a8.52,8.52,0,0,1-3.52-1.22,5.69,5.69,0,0,1-2.23-2.94,10,10,0,0,1-4.06,3.12,13.24,13.24,0,0,1-5.33,1.06,9.7,9.7,0,0,1-7.09-2.53,9,9,0,0,1-2.59-6.7,8.1,8.1,0,0,1,3.62-7.13q3.63-2.49,10.43-2.49H592V63.36q0-3.07-1.82-4.37a8.61,8.61,0,0,0-5.07-1.31,20.66,20.66,0,0,0-3.5.37,29.8,29.8,0,0,0-4.32,1.16l-1.38-4a29.8,29.8,0,0,1,5.29-1.5,27.19,27.19,0,0,1,4.73-.45q5.76,0,8.61,2.61a9.2,9.2,0,0,1,2.84,7.15ZM584.81,80.4a8.17,8.17,0,0,0,4-1.07,9,9,0,0,0,3.16-3v-7.2h-4q-4.71,0-6.69,1.6a5.26,5.26,0,0,0-2,4.35,5.36,5.36,0,0,0,1.35,4A5.56,5.56,0,0,0,584.81,80.4Z"/><path d="M603.66,83.76V54h4.65l.4,4a12.08,12.08,0,0,1,4.47-3.49,12.49,12.49,0,0,1,5.26-1.22q4.29,0,6.32,2.33a9.49,9.49,0,0,1,2,6.47V83.76h-5.42V65.44a26.91,26.91,0,0,0-.32-4.58,4,4,0,0,0-1.35-2.55,4.94,4.94,0,0,0-3.08-.79,6.81,6.81,0,0,0-3,.7A10.56,10.56,0,0,0,611,60a13.63,13.63,0,0,0-1.93,2.23V83.76Zm14.81-36.94a4.83,4.83,0,0,1-2.61-.67c-.72-.46-1.39-.91-2-1.36a3.23,3.23,0,0,0-1.94-.68,2.26,2.26,0,0,0-1.63.66,8,8,0,0,0-1.35,1.94l-3.25-1.64a11.74,11.74,0,0,1,2.54-3.57A5.19,5.19,0,0,1,611.92,40a5,5,0,0,1,2.66.66c.71.45,1.37.89,2,1.34a3.07,3.07,0,0,0,1.93.68,2.25,2.25,0,0,0,1.54-.61,8,8,0,0,0,1.45-1.84l3.22,1.61A9.86,9.86,0,0,1,622,45.57,5.56,5.56,0,0,1,618.47,46.82Z"/><path d="M643.47,53.31a12.71,12.71,0,0,1,7.16,1.92A11.91,11.91,0,0,1,655,60.64a21,21,0,0,1,1.48,8.22A20.51,20.51,0,0,1,655,77a12.56,12.56,0,0,1-4.42,5.51,12.4,12.4,0,0,1-7.14,2,12.76,12.76,0,0,1-7.15-1.92,11.81,11.81,0,0,1-4.41-5.41,20.76,20.76,0,0,1-1.5-8.22,20.63,20.63,0,0,1,1.51-8.14,12.33,12.33,0,0,1,4.44-5.48A12.54,12.54,0,0,1,643.47,53.31Zm0,4.31a6.23,6.23,0,0,0-5.53,2.76c-1.24,1.83-1.86,4.68-1.86,8.53s.61,6.65,1.83,8.49a6.89,6.89,0,0,0,11,0q1.83-2.76,1.83-8.54t-1.82-8.49A6.11,6.11,0,0,0,643.47,57.62Z"/><path d="M672.31,42.05v34a3.41,3.41,0,0,0,1.32,3,6.13,6.13,0,0,0,3.42.88,10.73,10.73,0,0,0,2.51-.28,19.52,19.52,0,0,0,2.37-.73l1.41,3.86a16.81,16.81,0,0,1-3.1,1.12,16.5,16.5,0,0,1-4.21.49,9.29,9.29,0,0,1-6.65-2.34,8.39,8.39,0,0,1-2.49-6.43V46.17h-9.06V42.05Z"/><path d="M727.16,49.61l-.51,11.32L737.21,57l1.63,5.05-10.86,3,7,8.86L730.72,77l-6.27-9.39L718.19,77l-4.29-3.1,7-8.86-10.86-3L711.7,57l10.55,3.92-.51-11.32Zm38.62-9.53L761.5,38,737.4,87.71l4.34,1.94Z"/></g></g></svg>